:FULLY-SPECIFIED
:FORCE-ALL-JOINTS-BE-3DOF
:DEGREES
1733
root -5.1333 15.5419 26.8557 916.575 -18.6599 180.77
lfemur -51.587 24.944 -25.7662
ltibia 61.5065 0 0
lfoot -18.0528 35.7611 0
ltoes 1.73322 0 0
rfemur -21.4192 -14.0072 15.7055
rtibia 72.3347 0 0
rfoot -8.00154 -25.8256 0
rtoes 14.447 0 0
lowerback 15.137 1.30989 -4.88704
upperback -1.17051 1.12634 3.737
thorax -9.94565 0.89749 6.63658
lowerneck 5.72002 -15.7198 -16.5758
upperneck -4.12026 -22.5026 23.5804
head 2.62914 -11.7562 8.81519
lclavicle 5.59937e-14 3.05353e-14 0
lhumerus -43.1366 -51.9309 120.695
lradius 94.0701 0 0
lwrist 41.3191 0 0
lhand -3.6442 42.964 0
lfingers 7.12502 0 0
lthumb 22.0946 71.7088 0
rclavicle 5.59937e-14 3.05353e-14 0
rhumerus 60.3936 34.3468 -15.8585
rradius 121.147 0 0
rwrist -18.2423 0 0
rhand 9.27007 -26.4478 0
rfingers 7.12502 0 0
rthumb 34.4172 -52.9733 0
1734
root -5.05466 15.5416 26.887 916.304 -18.4385 181.135
lfemur -51.4636 24.8275 -25.674
ltibia 61.552 0 0
lfoot -18.0297 35.6935 0
ltoes 1.57242 0 0
rfemur -21.4888 -14.0534 15.7189
rtibia 72.2198 0 0
rfoot -8.00635 -25.7845 0
rtoes 14.321 0 0
lowerback 15.1356 1.32461 -4.87969
upperback -1.16682 1.14659 3.72534
thorax -9.94032 0.906132 6.61487
lowerneck 5.69302 -15.6914 -16.5518
upperneck -4.09393 -22.4594 23.5397
head 2.62783 -11.7319 8.80165
lclavicle 5.54533e-14 3.03911e-14 0
lhumerus -43.2297 -51.8051 120.61
lradius 94.1143 0 0
lwrist 41.2428 0 0
lhand -3.68745 42.9137 0
lfingers 7.12502 0 0
lthumb 22.053 71.6624 0
rclavicle 5.54533e-14 3.03911e-14 0
rhumerus 60.2341 34.2097 -15.9817
rradius 120.807 0 0
rwrist -18.1821 0 0
rhand 9.1797 -26.4829 0
rfingers 7.12502 0 0
rthumb 34.3306 -53.0203 0
1735
root -4.97603 15.5413 26.9184 915.877 -18.2466 181.648
lfemur -51.3056 24.6756 -25.5715
ltibia 61.5981 0 0
lfoot -18.0101 35.6209 0
ltoes 1.37119 0 0
rfemur -21.5794 -14.0881 15.7196
rtibia 72.0701 0 0
rfoot -8.00391 -25.726 0
rtoes 14.1656 0 0
lowerback 15.1343 1.33949 -4.87472
upperback -1.16125 1.16656 3.71246
thorax -9.93278 0.91453 6.59321
lowerneck 5.6657 -15.6613 -16.5257
upperneck -4.06616 -22.4134 23.493
head 2.62554 -11.7059 8.78637
lclavicle 5.48295e-14 3.02259e-14 0
lhumerus -43.3271 -51.6637 120.504
lradius 94.1647 0 0
lwrist 41.1647 0 0
lhand -3.73749 42.8582 0
lfingers 7.12502 0 0
lthumb 22.0048 71.6113 0
rclavicle 5.48295e-14 3.02259e-14 0
rhumerus 60.0531 34.0511 -16.1233
rradius 120.417 0 0
rwrist -18.132 0 0
rhand 9.08229 -26.5277 0
rfingers 7.12502 0 0
rthumb 34.2374 -53.0782 0
1736
root -4.89739 15.541 26.9498 915.315 -18.0618 182.297
lfemur -51.1133 24.4892 -25.4549
ltibia 61.6477 0 0
lfoot -17.9917 35.54 0
ltoes 1.1287 0 0
rfemur -21.6905 -14.1171 15.7114
rtibia 71.8867 0 0
rfoot -7.99634 -25.6516 0
rtoes 13.9795 0 0
lowerback 15.133 1.35548 -4.87105
upperback -1.15401 1.18767 3.69788
thorax -9.92321 0.923327 6.57013
lowerneck 5.63631 -15.6281 -16.4963
upperneck -4.03552 -22.3623 23.4391
head 2.62243 -11.6769 8.76888
lclavicle 5.41065e-14 3.0035e-14 0
lhumerus -43.434 -51.5021 120.374
lradius 94.2227 0 0
lwrist 41.0802 0 0
lhand -3.79557 42.7953 0
lfingers 7.12502 0 0
lthumb 21.949 71.5536 0
rclavicle 5.41065e-14 3.0035e-14 0
rhumerus 59.8452 33.8672 -16.2869
rradius 119.967 0 0
rwrist -18.0855 0 0
rhand 8.97347 -26.5821 0
rfingers 7.12502 0 0
rthumb 34.1332 -53.1474 0
1737
root -4.81875 15.5407 26.9811 914.639 -17.8621 183.071
lfemur -50.8869 24.2692 -25.3207
ltibia 61.7038 0 0
lfoot -17.9719 35.4475 0
ltoes 0.844078 0 0
rfemur -21.8216 -14.1464 15.6986
rtibia 71.6702 0 0
rfoot -7.98575 -25.5628 0
rtoes 13.7616 0 0
lowerback 15.1317 1.37354 -4.86759
upperback -1.14532 1.21137 3.68111
thorax -9.9118 0.933166 6.54416
lowerneck 5.60311 -15.5901 -16.4625
upperneck -4.00061 -22.3039 23.3767
head 2.61864 -11.6439 8.74868
lclavicle 5.32683e-14 2.9814e-14 0
lhumerus -43.5557 -51.3156 120.222
lradius 94.2899 0 0
lwrist 40.9844 0 0
lhand -3.8629 42.7229 0
lfingers 7.12502 0 0
lthumb 21.8842 71.4873 0
rclavicle 5.32683e-14 2.9814e-14 0
rhumerus 59.6048 33.654 -16.4764
rradius 119.446 0 0
rwrist -18.036 0 0
rhand 8.8489 -26.6462 0
rfingers 7.12502 0 0
rthumb 34.0139 -53.2285 0
1738
root -4.74011 15.5404 27.0125 913.867 -17.6252 183.957
lfemur -50.6266 24.0164 -25.1651
ltibia 61.7692 0 0
lfoot -17.9485 35.34 0
ltoes 0.516491 0 0
rfemur -21.9721 -14.1822 15.6852
rtibia 71.4214 0 0
rfoot -7.97426 -25.4612 0
rtoes 13.5106 0 0
lowerback 15.13 1.39461 -4.86326
upperback -1.1354 1.23909 3.66167
thorax -9.89875 0.944689 6.51381
lowerneck 5.56436 -15.5459 -16.4233
upperneck -3.95999 -22.236 23.3045
head 2.61434 -11.6055 8.7253
lclavicle 5.22994e-14 2.95584e-14 0
lhumerus -43.6973 -51.0997 120.047
lradius 94.3675 0 0
lwrist 40.8727 0 0
lhand -3.94075 42.639 0
lfingers 7.12502 0 0
lthumb 21.8093 71.4104 0
rclavicle 5.22994e-14 2.95584e-14 0
rhumerus 59.3267 33.4075 -16.6955
rradius 118.843 0 0
rwrist -17.977 0 0
rhand 8.70423 -26.7198 0
rfingers 7.12502 0 0
rthumb 33.8754 -53.3219 0
1739
root -4.66148 15.5401 27.0439 913.02 -17.3289 184.942
lfemur -50.3326 23.7319 -24.9846
ltibia 61.8469 0 0
lfoot -17.9188 35.2142 0
ltoes 0.145088 0 0
rfemur -22.1417 -14.2302 15.6753
rtibia 71.1413 0 0
rfoot -7.96399 -25.3483 0
rtoes 13.2253 0 0
lowerback 15.128 1.41966 -4.85698
upperback -1.12446 1.27226 3.63907
thorax -9.88423 0.95854 6.4776
lowerneck 5.51833 -15.4941 -16.3776
upperneck -3.91226 -22.1565 23.2213
head 2.60967 -11.5605 8.69824
lclavicle 5.11838e-14 2.92637e-14 0
lhumerus -43.864 -50.8497 119.85
lradius 94.4572 0 0
lwrist 40.7405 0 0
lhand -4.03033 42.5415 0
lfingers 7.12502 0 0
lthumb 21.7231 71.3209 0
rclavicle 5.11838e-14 2.92637e-14 0
rhumerus 59.0053 33.1238 -16.9481
rradius 118.149 0 0
rwrist -17.9018 0 0
rhand 8.53511 -26.8031 0
rfingers 7.12502 0 0
rthumb 33.7135 -53.428 0
1740
root -4.58284 15.5398 27.0752 912.118 -16.9511 186.016
lfemur -50.0052 23.4164 -24.7754
ltibia 61.9398 0 0
lfoot -17.8804 35.0668 0
ltoes -0.270978 0 0
rfemur -22.3298 -14.2966 15.673
rtibia 70.8307 0 0
rfoot -7.95704 -25.2257 0
rtoes 12.9045 0 0
lowerback 15.1255 1.44963 -4.84766
upperback -1.11272 1.31233 3.61283
thorax -9.86844 0.975362 6.43406
lowerneck 5.46328 -15.4331 -16.3244
upperneck -3.856 -22.0631 23.1257
head 2.60479 -11.5077 8.66704
lclavicle 4.99057e-14 2.89254e-14 0
lhumerus -44.0611 -50.561 119.629
lradius 94.5603 0 0
lwrist 40.583 0 0
lhand -4.13288 42.4283 0
lfingers 7.12502 0 0
lthumb 21.6245 71.2169 0
rclavicle 4.99057e-14 2.89254e-14 0
rhumerus 58.6352 32.7989 -17.2379
rradius 117.351 0 0
rwrist -17.804 0 0
rhand 8.3372 -26.8958 0
rfingers 7.12502 0 0
rthumb 33.524 -53.5475 0
1741
root -4.5042 15.5395 27.1066 911.182 -16.4696 187.165
lfemur -49.6445 23.071 -24.534
ltibia 62.0508 0 0
lfoot -17.831 34.8945 0
ltoes -0.732555 0 0
rfemur -22.536 -14.3873 15.6823
rtibia 70.4902 0 0
rfoot -7.95555 -25.095 0
rtoes 12.5469 0 0
lowerback 15.1222 1.48549 -4.83421
upperback -1.10041 1.36074 3.58246
thorax -9.85156 0.995798 6.38171
lowerneck 5.39748 -15.3614 -16.2626
upperneck -3.78978 -21.9536 23.0166
head 2.59986 -11.4459 8.63119
lclavicle 4.84494e-14 2.85389e-14 0
lhumerus -44.2938 -50.2289 119.384
lradius 94.6783 0 0
lwrist 40.3954 0 0
lhand -4.24965 42.2974 0
lfingers 7.12502 0 0
lthumb 21.5121 71.0963 0
rclavicle 4.84494e-14 2.85389e-14 0
rhumerus 58.2111 32.4289 -17.5687
rradius 116.439 0 0
rwrist -17.6769 0 0
rhand 8.10614 -26.9981 0
rfingers 7.12502 0 0
rthumb 33.3027 -53.6808 0
1742
root -4.42557 15.5392 27.138 910.231 -15.8622 188.377
lfemur -49.2509 22.6965 -24.2568
ltibia 62.1829 0 0
lfoot -17.7681 34.6939 0
ltoes -1.24049 0 0
rfemur -22.7598 -14.5084 15.7074
rtibia 70.1209 0 0
rfoot -7.96162 -24.9577 0
rtoes 12.1513 0 0
lowerback 15.1182 1.52817 -4.81556
upperback -1.08773 1.41891 3.54748
thorax -9.83379 1.02049 6.31907
lowerneck 5.31917 -15.2776 -16.1911
upperneck -3.7122 -21.8259 22.8926
head 2.59503 -11.3739 8.59022
lclavicle 4.67991e-14 2.80999e-14 0
lhumerus -44.5672 -49.8489 119.116
lradius 94.8126 0 0
lwrist 40.1732 0 0
lhand -4.38188 42.1466 0
lfingers 7.12502 0 0
lthumb 21.3849 70.9573 0
rclavicle 4.67991e-14 2.80999e-14 0
rhumerus 57.7274 32.0099 -17.9443
rradius 115.403 0 0
rwrist -17.514 0 0
rhand 7.83759 -27.1099 0
rfingers 7.12502 0 0
rthumb 33.0456 -53.8283 0
1743
root -4.34693 15.5389 27.1693 909.285 -15.1067 189.64
lfemur -48.8244 22.2937 -23.94
ltibia 62.339 0 0
lfoot -17.6892 34.4617 0
ltoes -1.79563 0 0
rfemur -23.0006 -14.6657 15.7523
rtibia 69.7234 0 0
rfoot -7.97737 -24.8154 0
rtoes 11.7165 0 0
lowerback 15.1132 1.57865 -4.79062
upperback -1.07491 1.48829 3.50741
thorax -9.8153 1.05008 6.24467
lowerneck 5.22663 -15.18 -16.1089
upperneck -3.62184 -21.6777 22.7525
head 2.59045 -11.2904 8.54364
lclavicle 4.49389e-14 2.76037e-14 0
lhumerus -44.8866 -49.4164 118.824
lradius 94.9648 0 0
lwrist 39.9117 0 0
lhand -4.53078 41.9739 0
lfingers 7.12502 0 0
lthumb 21.2416 70.7978 0
rclavicle 4.49389e-14 2.76037e-14 0
rhumerus 57.1787 31.5378 -18.3685
rradius 114.232 0 0
rwrist -17.3087 0 0
rhand 7.52721 -27.2312 0
rfingers 7.12502 0 0
rthumb 32.7483 -53.9905 0
1744
root -4.26829 15.5387 27.2007 908.364 -14.1809 190.941
lfemur -48.3654 21.8637 -23.5801
ltibia 62.522 0 0
lfoot -17.5919 34.1946 0
ltoes -2.39883 0 0
rfemur -23.258 -14.8654 15.8211
rtibia 69.2986 0 0
rfoot -8.00493 -24.6697 0
rtoes 11.2413 0 0
lowerback 15.1071 1.63786 -4.7583
upperback -1.06217 1.57031 3.46175
thorax -9.79629 1.08522 6.15703
lowerneck 5.11811 -15.0673 -16.0149
upperneck -3.51727 -21.5069 22.5951
head 2.58627 -11.1943 8.49097
lclavicle 4.28532e-14 2.7046e-14 0
lhumerus -45.2572 -48.9267 118.508
lradius 95.1362 0 0
lwrist 39.606 0 0
lhand -4.69762 41.7772 0
lfingers 7.12502 0 0
lthumb 21.0811 70.6158 0
rclavicle 4.28532e-14 2.7046e-14 0
rhumerus 56.5597 31.0088 -18.8449
rradius 112.915 0 0
rwrist -17.0545 0 0
rhand 7.17063 -27.3619 0
rfingers 7.12502 0 0
rthumb 32.4067 -54.168 0
1745
root -4.18965 15.5384 27.232 907.488 -13.0627 192.27
lfemur -47.874 21.4074 -23.1733
ltibia 62.7348 0 0
lfoot -17.4737 33.8893 0
ltoes -3.05093 0 0
rfemur -23.5316 -15.1134 15.9179
rtibia 68.8473 0 0
rfoot -8.04639 -24.5221 0
rtoes 10.7243 0 0
lowerback 15.0997 1.70677 -4.71752
upperback -1.04971 1.6664 3.41004
thorax -9.77696 1.12654 6.05466
lowerneck 4.99188 -14.938 -15.908
upperneck -3.39709 -21.3112 22.4189
head 2.58266 -11.0843 8.43173
lclavicle 4.0526e-14 2.64221e-14 0
lhumerus -45.6842 -48.3752 118.168
lradius 95.3283 0 0
lwrist 39.2516 0 0
lhand -4.88361 41.5544 0
lfingers 7.12502 0 0
lthumb 20.9022 70.4094 0
rclavicle 4.0526e-14 2.64221e-14 0
rhumerus 55.8648 30.4189 -19.3775
rradius 111.442 0 0
rwrist -16.7447 0 0
rhand 6.76351 -27.502 0
rfingers 7.12502 0 0
rthumb 32.0167 -54.3612 0
1746
root -4.11102 15.5381 27.2634 906.678 -11.7298 193.612
lfemur -47.3504 20.9255 -22.7161
ltibia 62.9803 0 0
lfoot -17.3323 33.5424 0
ltoes -3.75277 0 0
rfemur -23.8208 -15.4156 16.0468
rtibia 68.3704 0 0
rfoot -8.10389 -24.3741 0
rtoes 10.1645 0 0
lowerback 15.0909 1.78633 -4.66721
upperback -1.03777 1.77802 3.35178
thorax -9.75747 1.17469 5.93609
lowerneck 4.84621 -14.7904 -15.7873
upperneck -3.25987 -21.0885 22.2229
head 2.57977 -10.9591 8.36543
lclavicle 3.79415e-14 2.57277e-14 0
lhumerus -46.1728 -47.7574 117.804
lradius 95.5426 0 0
lwrist 38.8437 0 0
lhand -5.09001 41.3035 0
lfingers 7.12502 0 0
lthumb 20.7036 70.1766 0
rclavicle 3.79415e-14 2.57277e-14 0
rhumerus 55.0887 29.7641 -19.97
rradius 109.801 0 0
rwrist -16.3729 0 0
rhand 6.30151 -27.6514 0
rfingers 7.12502 0 0
rthumb 31.5741 -54.5706 0
